<svg width="22" height="22" viewBox="0 0 22 22" fill="none" xmlns="http://www.w3.org/2000/svg">
<path d="M11 0.166656C5.01996 0.166656 0.166626 5.01999 0.166626 11C0.166626 16.98 5.01996 21.8333 11 21.8333C16.98 21.8333 21.8333 16.98 21.8333 11C21.8333 5.01999 16.98 0.166656 11 0.166656ZM5.65913 17.8033C6.12496 16.8283 8.96329 15.875 11 15.875C13.0366 15.875 15.8858 16.8283 16.3408 17.8033C14.8675 18.9733 13.015 19.6667 11 19.6667C8.98496 19.6667 7.13246 18.9733 5.65913 17.8033ZM17.89 16.2325C16.3408 14.3475 12.5816 13.7083 11 13.7083C9.41829 13.7083 5.65913 14.3475 4.10996 16.2325C3.00496 14.7808 2.33329 12.9717 2.33329 11C2.33329 6.22249 6.22246 2.33332 11 2.33332C15.7775 2.33332 19.6666 6.22249 19.6666 11C19.6666 12.9717 18.995 14.7808 17.89 16.2325ZM11 4.49999C8.89829 4.49999 7.20829 6.18999 7.20829 8.29166C7.20829 10.3933 8.89829 12.0833 11 12.0833C13.1016 12.0833 14.7916 10.3933 14.7916 8.29166C14.7916 6.18999 13.1016 4.49999 11 4.49999ZM11 9.91666C10.1008 9.91666 9.37496 9.19082 9.37496 8.29166C9.37496 7.39249 10.1008 6.66666 11 6.66666C11.8991 6.66666 12.625 7.39249 12.625 8.29166C12.625 9.19082 11.8991 9.91666 11 9.91666Z" fill="white"/>
</svg>
